<svg width="609" height="509" viewBox="0 0 609 509" fill="none" xmlns="http://www.w3.org/2000/svg">
<g clip-path="url(#clip0_89_355)">
<path d="M72.1142 3.85699C42.4701 13.9734 23.4923 37.2499 15.5014 67.2259C11.6335 81.7354 9.87475 97.7903 13.8048 112.461C19.7814 134.771 31.4102 148.472 51.0312 160.419C61.8538 167.009 72.9403 168.614 85.4458 167.591C94.3028 166.867 107.827 165.442 110.838 155.245C114.482 142.902 100.238 145.44 94.6034 150.9C90.4743 154.901 86.6312 161.178 84.4129 166.427C81.245 173.922 81.4413 183.34 81.3006 191.186C81.024 206.612 82.0314 221.907 83.3955 237.259C86.5936 273.254 91.9216 309.039 94.8073 345.054C97.7061 381.232 98.4469 417.409 93.5358 453.454C90.6024 474.984 84.1608 495.985 80.5182 517.427" stroke="black" stroke-width="2" stroke-linecap="round" stroke-linejoin="round" stroke-dasharray="4 8"/>
</g>
<g clip-path="url(#clip1_89_355)">
<g clip-path="url(#clip2_89_355)">
<path d="M306.217 38.2378C303.963 38.0924 302.291 39.9825 301.637 42.0906C301.274 39.9825 299.892 37.8743 297.639 37.6562C295.24 37.4381 293.641 39.3282 293.423 41.9452C293.132 46.0889 296.476 49.7237 300.183 53.7219C300.547 54.0854 301.128 54.1581 301.492 53.7946C305.708 50.3052 309.488 47.1793 309.779 43.0357C309.924 40.4186 308.616 38.3832 306.217 38.2378ZM278.157 48.7059C276.048 49.5783 275.394 51.9772 275.685 54.0854C274.449 52.3407 272.268 51.0322 270.16 51.8318C267.907 52.7042 267.252 55.1031 268.197 57.5021C269.724 61.3549 274.304 63.245 279.32 65.2805C279.829 65.4986 280.337 65.2805 280.556 64.7716C282.809 59.8283 284.917 55.3212 283.391 51.4683C282.446 49.1421 280.41 47.8336 278.157 48.7059ZM245.298 143.501C243.19 144.373 242.536 146.772 242.827 148.88C241.591 147.135 239.41 145.827 237.302 146.627C235.048 147.499 234.394 149.898 235.339 152.297C236.866 156.15 241.445 158.04 246.461 160.075C246.97 160.293 247.479 160.075 247.697 159.566C249.951 154.623 252.059 150.116 250.532 146.263C249.66 143.864 247.552 142.556 245.298 143.501ZM263.908 275.37C261.727 275.806 260.564 278.06 260.492 280.241C259.619 278.278 257.729 276.533 255.548 276.969C253.149 277.406 252.059 279.586 252.568 282.204C253.295 286.274 257.438 288.964 262.018 291.945C262.454 292.235 263.036 292.09 263.327 291.727C266.525 287.292 269.433 283.294 268.633 279.223C268.052 276.533 266.307 274.861 263.908 275.37ZM390.98 313.39C388.799 312.881 386.836 314.48 385.891 316.443C385.891 314.262 384.873 311.936 382.693 311.427C380.366 310.845 378.476 312.445 377.822 314.989C376.877 319.06 379.567 323.131 382.547 327.711C382.838 328.147 383.419 328.292 383.856 328.002C388.581 325.239 392.797 322.768 393.815 318.697C394.324 316.152 393.306 313.899 390.98 313.39ZM588.711 143.355C586.53 142.846 584.568 144.446 583.623 146.409C583.623 144.228 582.605 141.901 580.424 141.393C578.098 140.811 576.208 142.41 575.553 144.955C574.608 149.026 577.298 153.096 580.279 157.676C580.569 158.112 581.151 158.258 581.587 157.967C586.312 155.205 590.529 152.733 591.546 148.662C592.055 146.118 591.11 143.864 588.711 143.355ZM552.509 50.8141C550.328 50.2325 548.365 51.8318 547.348 53.7219C547.42 51.541 546.403 49.2148 544.222 48.6332C541.895 47.979 539.933 49.5056 539.278 52.0499C538.188 56.0481 540.805 60.2645 543.713 64.917C544.004 65.3532 544.585 65.4986 545.021 65.2805C549.819 62.5907 554.108 60.2645 555.199 56.2662C555.78 53.6492 554.835 51.3956 552.509 50.8141Z" fill="#5FA503"/>
<path d="M324.027 41.2183C323.809 41.2183 323.664 41.291 323.518 41.3637C323.3 41.5817 323.082 41.8725 323.01 42.3087C322.646 43.7626 323.664 45.3619 324.9 47.1793C326.79 46.0889 328.389 45.0711 328.68 43.6172C328.753 43.2537 328.753 42.8176 328.607 42.5995C328.462 42.3814 328.316 42.236 327.953 42.1633C327.371 42.0179 326.79 42.5268 326.499 43.1083C326.354 43.3991 325.99 43.5445 325.699 43.4718C325.554 43.3991 325.409 43.3264 325.263 43.2537C325.19 43.1083 325.118 42.963 325.118 42.8176C325.118 42.1633 324.827 41.4364 324.245 41.291C324.173 41.2183 324.1 41.2183 324.027 41.2183ZM324.754 48.7059C324.536 48.7059 324.391 48.6332 324.173 48.5605C324.027 48.4878 323.882 48.3424 323.737 48.197L323.664 48.1243C322.283 46.0162 321.047 44.0534 321.483 42.0179C321.628 41.291 321.992 40.7094 322.501 40.2732C323.082 39.8371 323.737 39.6917 324.463 39.8371C325.263 40.0551 325.772 40.564 326.063 41.2183C326.644 40.7821 327.371 40.564 328.098 40.7094C328.825 40.8548 329.407 41.291 329.698 41.9452C329.988 42.5268 330.061 43.181 329.916 43.9807C329.407 46.0889 327.444 47.252 325.263 48.5605L325.19 48.6332C325.118 48.6332 324.972 48.7059 324.754 48.7059ZM236.647 172.07C236.502 172.143 236.357 172.288 236.284 172.506C236.211 172.797 236.211 173.16 236.357 173.524C236.866 174.905 238.538 175.705 240.573 176.577C241.518 174.614 242.318 172.942 241.809 171.561C241.663 171.198 241.445 170.907 241.155 170.761C240.936 170.616 240.646 170.616 240.355 170.689C239.773 170.907 239.555 171.634 239.701 172.288C239.773 172.652 239.555 172.942 239.264 173.015C238.974 173.16 238.61 173.015 238.392 172.724C238.029 172.215 237.374 171.706 236.793 171.925C236.793 171.997 236.72 171.997 236.647 172.07ZM241.3 177.886C241.009 178.104 240.573 178.104 240.21 177.958L240.137 177.886C237.883 176.868 235.702 175.923 234.975 173.96C234.685 173.233 234.685 172.579 234.903 171.925C235.121 171.27 235.63 170.761 236.357 170.543C237.084 170.253 237.811 170.398 238.465 170.761C238.683 170.107 239.192 169.526 239.919 169.235C240.573 168.944 241.3 169.017 241.954 169.38C242.536 169.671 242.972 170.253 243.19 170.98C243.917 173.015 242.899 175.123 241.809 177.304L241.736 177.377C241.663 177.595 241.518 177.813 241.3 177.886ZM276.775 218.668C276.63 218.74 276.485 218.886 276.412 219.031C276.266 219.322 276.266 219.685 276.339 220.049C276.63 221.503 278.229 222.521 280.047 223.684C281.282 221.866 282.3 220.34 282.009 218.886C281.937 218.45 281.719 218.159 281.501 217.941C281.282 217.795 281.064 217.723 280.774 217.795C280.192 217.941 279.901 218.668 279.829 219.322C279.829 219.685 279.61 219.976 279.247 219.976C279.102 219.976 278.956 219.976 278.811 219.904C278.665 219.831 278.52 219.685 278.447 219.54C278.157 218.958 277.648 218.45 276.993 218.522C276.921 218.595 276.848 218.595 276.775 218.668ZM280.628 225.138C280.265 225.283 279.901 225.283 279.538 225.065L279.465 224.992C277.357 223.684 275.321 222.448 274.885 220.34C274.74 219.613 274.813 218.886 275.103 218.304C275.394 217.65 275.976 217.286 276.703 217.141C277.502 216.996 278.157 217.214 278.738 217.65C279.102 216.996 279.61 216.487 280.41 216.341C281.137 216.196 281.791 216.341 282.373 216.778C282.882 217.214 283.245 217.795 283.391 218.522C283.827 220.63 282.518 222.521 281.137 224.629L281.064 224.701C280.919 224.919 280.774 224.992 280.628 225.138ZM259.619 310.555C259.474 310.627 259.328 310.773 259.256 310.918C259.11 311.209 259.11 311.572 259.256 311.936C259.619 313.39 261.291 314.262 263.181 315.353C264.272 313.462 265.217 311.863 264.853 310.409C264.708 310.046 264.562 309.682 264.272 309.537C264.054 309.392 263.763 309.319 263.472 309.392C262.89 309.537 262.6 310.264 262.672 310.918C262.672 311.282 262.454 311.572 262.164 311.645C261.873 311.718 261.509 311.572 261.364 311.282C261.073 310.7 260.492 310.191 259.837 310.337C259.765 310.482 259.692 310.555 259.619 310.555ZM263.836 316.806C263.472 316.952 263.109 317.025 262.745 316.806L262.672 316.734C260.492 315.571 258.456 314.408 257.875 312.372C257.656 311.645 257.729 310.918 257.947 310.337C258.238 309.682 258.82 309.246 259.474 309.028C260.273 308.81 261 309.028 261.582 309.464C261.873 308.81 262.382 308.301 263.181 308.083C263.908 307.865 264.562 308.01 265.144 308.446C265.653 308.81 266.016 309.392 266.234 310.118C266.816 312.154 265.58 314.189 264.272 316.298L264.199 316.37C264.199 316.588 264.054 316.734 263.836 316.806ZM327.88 342.104C327.735 342.177 327.589 342.25 327.444 342.395C327.299 342.613 327.153 342.977 327.226 343.413C327.299 344.867 328.753 346.103 330.424 347.557C331.878 345.957 333.187 344.576 333.114 343.049C333.114 342.613 332.969 342.323 332.751 342.104C332.533 341.886 332.315 341.814 332.024 341.814C331.37 341.886 331.006 342.541 330.933 343.195C330.861 343.558 330.57 343.776 330.279 343.776C330.134 343.776 329.988 343.776 329.843 343.631C329.698 343.558 329.625 343.413 329.552 343.268C329.334 342.613 328.898 342.032 328.244 342.032C328.026 342.032 327.953 342.032 327.88 342.104ZM330.715 349.01C330.352 349.083 329.988 349.01 329.625 348.792L329.552 348.72C327.662 347.12 325.845 345.594 325.772 343.486C325.699 342.759 325.917 342.032 326.281 341.523C326.717 340.941 327.299 340.651 328.026 340.578C328.825 340.505 329.479 340.869 329.988 341.45C330.424 340.869 331.006 340.432 331.806 340.36C332.533 340.287 333.187 340.578 333.696 341.087C334.132 341.523 334.423 342.177 334.423 342.977C334.568 345.085 332.969 346.83 331.224 348.647L331.151 348.72C331.079 348.865 330.861 349.01 330.715 349.01ZM408.281 317.388C408.063 317.388 407.918 317.461 407.772 317.533C407.554 317.751 407.336 318.042 407.264 318.478C406.9 319.932 407.918 321.532 409.154 323.349C411.044 322.259 412.643 321.241 412.934 319.787C413.006 319.423 413.006 318.987 412.861 318.769C412.716 318.551 412.57 318.406 412.207 318.333C411.625 318.188 411.044 318.697 410.753 319.278C410.607 319.569 410.244 319.714 409.953 319.642C409.808 319.569 409.662 319.496 409.517 319.423C409.444 319.278 409.372 319.133 409.372 318.987C409.372 318.333 409.081 317.606 408.499 317.461C408.427 317.388 408.354 317.388 408.281 317.388ZM409.008 324.876C408.79 324.876 408.645 324.803 408.427 324.73C408.281 324.658 408.136 324.512 407.99 324.367L407.918 324.294C406.537 322.186 405.301 320.223 405.737 318.188C405.882 317.461 406.246 316.879 406.755 316.443C407.336 316.007 407.99 315.861 408.717 316.007C409.517 316.225 410.026 316.734 410.317 317.388C410.898 316.952 411.625 316.734 412.352 316.879C413.079 317.025 413.661 317.461 413.951 318.115C414.242 318.697 414.315 319.351 414.17 320.15C413.661 322.259 411.698 323.422 409.517 324.73L409.444 324.803C409.444 324.803 409.226 324.876 409.008 324.876ZM590.674 198.458C590.456 198.386 590.31 198.458 590.165 198.531C589.874 198.676 589.656 198.895 589.438 199.258C588.784 200.567 589.365 202.384 590.092 204.419C592.201 203.765 593.945 203.256 594.672 201.948C594.89 201.584 594.89 201.221 594.89 200.93C594.818 200.639 594.672 200.494 594.381 200.348C593.8 200.058 593.146 200.421 592.709 200.93C592.491 201.148 592.128 201.221 591.837 201.075C591.692 201.003 591.546 200.857 591.546 200.712C591.474 200.567 591.474 200.421 591.474 200.276C591.619 199.621 591.546 198.895 590.965 198.604C590.819 198.531 590.747 198.531 590.674 198.458ZM589.584 205.946C589.22 205.873 588.929 205.583 588.784 205.219V205.146C587.984 202.82 587.185 200.567 588.202 198.676C588.566 198.022 589.075 197.513 589.656 197.295C590.31 197.004 591.037 197.077 591.692 197.368C592.419 197.731 592.782 198.386 592.928 199.113C593.582 198.822 594.309 198.749 595.036 199.113C595.69 199.476 596.126 199.985 596.272 200.712C596.417 201.366 596.271 202.02 595.981 202.675C595.036 204.565 592.782 205.219 590.383 205.946H590.31C589.947 205.946 589.802 205.946 589.584 205.946ZM589.947 126.49C589.729 126.417 589.584 126.49 589.438 126.563C589.147 126.708 588.929 126.926 588.711 127.29C588.057 128.598 588.638 130.415 589.365 132.451C591.474 131.797 593.218 131.288 593.945 129.907C594.163 129.543 594.163 129.18 594.163 128.889C594.091 128.598 593.945 128.453 593.654 128.307C593.073 128.017 592.419 128.38 591.982 128.889C591.764 129.107 591.401 129.18 591.11 129.034C590.965 128.962 590.819 128.816 590.819 128.671C590.747 128.525 590.747 128.38 590.747 128.235C590.892 127.58 590.819 126.853 590.238 126.563C590.092 126.49 590.02 126.49 589.947 126.49ZM588.857 133.905C588.638 133.832 588.493 133.759 588.348 133.614C588.202 133.469 588.13 133.323 588.057 133.178V133.105C587.257 130.779 586.458 128.525 587.475 126.635C587.839 125.981 588.348 125.472 588.929 125.254C589.584 124.963 590.31 125.036 590.965 125.327C591.692 125.69 592.055 126.345 592.201 126.999C592.855 126.708 593.582 126.635 594.309 126.999C594.963 127.362 595.399 127.871 595.545 128.598C595.69 129.252 595.545 129.907 595.254 130.561C594.309 132.451 592.055 133.105 589.656 133.832H589.584C589.22 133.978 589.002 133.978 588.857 133.905ZM517.106 141.029C516.961 141.174 516.888 141.32 516.815 141.465C516.743 141.756 516.743 142.119 516.961 142.483C517.542 143.864 519.287 144.518 521.323 145.245C522.195 143.21 522.849 141.465 522.268 140.157C522.122 139.793 521.831 139.502 521.613 139.357C521.395 139.212 521.104 139.212 520.814 139.357C520.232 139.575 520.087 140.375 520.232 141.029C520.305 141.392 520.087 141.683 519.796 141.829C519.505 141.974 519.142 141.901 518.924 141.611C518.56 141.102 517.906 140.666 517.324 140.956C517.252 140.956 517.179 141.029 517.106 141.029ZM522.195 146.627C521.904 146.845 521.468 146.917 521.104 146.772H521.032C518.706 145.9 516.525 145.1 515.652 143.137C515.362 142.41 515.289 141.756 515.434 141.102C515.652 140.447 516.089 139.866 516.743 139.575C517.47 139.284 518.197 139.357 518.851 139.72C519.069 139.066 519.505 138.412 520.232 138.121C520.886 137.83 521.613 137.83 522.268 138.121C522.849 138.412 523.285 138.921 523.649 139.648C524.521 141.611 523.576 143.791 522.631 146.045V146.118C522.486 146.336 522.34 146.481 522.195 146.627ZM565.594 61.7911C565.376 61.7184 565.231 61.7911 565.085 61.8638C564.794 62.0091 564.576 62.2272 564.358 62.5907C563.704 63.8992 564.286 65.7166 565.012 67.7521C567.121 67.0978 568.865 66.5163 569.592 65.2077C569.81 64.8443 569.81 64.4808 569.738 64.19C569.665 63.8992 569.52 63.7538 569.229 63.6084C568.647 63.3177 567.993 63.6811 567.557 64.19C567.339 64.4808 566.975 64.5535 566.684 64.3354C566.394 64.19 566.248 63.8265 566.321 63.5357C566.466 62.8815 566.394 62.1545 565.812 61.8638C565.739 61.8638 565.667 61.7911 565.594 61.7911ZM564.504 69.206C564.286 69.1333 564.14 69.0606 563.995 68.9152C563.849 68.7698 563.777 68.6244 563.704 68.479V68.4063C562.904 66.0801 562.105 63.8265 563.05 61.9364C563.413 61.2822 563.922 60.7733 564.504 60.4825C565.158 60.1918 565.885 60.1918 566.539 60.5552C567.266 60.9187 567.63 61.573 567.775 62.2272C568.429 61.9364 569.156 61.8638 569.883 62.2272C570.537 62.518 570.974 63.0996 571.119 63.8265C571.264 64.4808 571.192 65.135 570.828 65.7893C569.883 67.6794 567.63 68.4063 565.231 69.1333H565.158C564.867 69.2787 564.722 69.2787 564.504 69.206ZM343.728 135.141C343.51 135.141 343.364 135.141 343.219 135.213C342.928 135.359 342.71 135.65 342.565 136.013C342.056 137.394 342.855 139.066 343.8 141.102C345.836 140.229 347.508 139.502 348.017 138.121C348.162 137.758 348.162 137.394 348.089 137.103C348.017 136.813 347.799 136.667 347.508 136.595C346.926 136.377 346.272 136.813 345.909 137.394C345.691 137.685 345.4 137.758 345.036 137.685C344.745 137.54 344.527 137.249 344.6 136.885C344.673 136.231 344.527 135.504 343.946 135.286C343.873 135.213 343.8 135.141 343.728 135.141ZM343.437 142.701C343.073 142.628 342.71 142.41 342.565 142.047L342.492 141.974C341.401 139.721 340.384 137.612 341.183 135.65C341.474 134.923 341.91 134.414 342.419 134.05C343.001 133.687 343.728 133.687 344.455 133.905C345.182 134.196 345.691 134.777 345.909 135.431C346.563 135.068 347.29 134.923 348.017 135.213C348.671 135.431 349.18 135.94 349.398 136.667C349.616 137.249 349.543 137.976 349.325 138.703C348.598 140.666 346.417 141.611 344.091 142.628L344.019 142.701C343.873 142.701 343.655 142.701 343.437 142.701Z" fill="#14281D"/>
<path d="M301.056 126.563C301.056 127.58 300.256 128.38 299.238 128.38C298.22 128.38 297.421 127.58 297.421 126.563C297.421 125.545 298.22 124.745 299.238 124.745C300.256 124.745 301.056 125.545 301.056 126.563ZM350.997 117.985C350.997 119.002 350.198 119.802 349.18 119.802C348.162 119.802 347.363 119.002 347.363 117.985C347.363 116.967 348.162 116.167 349.18 116.167C350.198 116.167 350.997 117.04 350.997 117.985ZM347.508 40.4913C347.508 41.5091 346.708 42.3087 345.691 42.3087C344.673 42.3087 343.873 41.5091 343.873 40.4913C343.873 39.4736 344.673 38.6739 345.691 38.6739C346.636 38.7466 347.508 39.5463 347.508 40.4913ZM502.058 34.5303C502.058 35.548 501.259 36.3477 500.241 36.3477C499.223 36.3477 498.424 35.548 498.424 34.5303C498.424 33.5126 499.223 32.7129 500.241 32.7129C501.259 32.7129 502.058 33.5126 502.058 34.5303ZM544.876 35.6207C544.876 36.6385 544.076 37.4381 543.059 37.4381C542.041 37.4381 541.241 36.6385 541.241 35.6207C541.241 34.603 542.041 33.8034 543.059 33.8034C544.076 33.8034 544.876 34.6757 544.876 35.6207ZM512.89 87.6706C512.89 88.6884 512.09 89.488 511.073 89.488C510.055 89.488 509.255 88.6884 509.255 87.6706C509.255 86.6529 510.055 85.8532 511.073 85.8532C512.09 85.9259 512.89 86.7256 512.89 87.6706ZM583.623 75.8213C583.623 76.839 582.823 77.6387 581.805 77.6387C580.787 77.6387 579.988 76.839 579.988 75.8213C579.988 74.8036 580.787 74.0039 581.805 74.0039C582.823 74.0039 583.623 74.8036 583.623 75.8213ZM596.562 110.279C596.562 111.297 595.763 112.096 594.745 112.096C593.727 112.096 592.928 111.297 592.928 110.279C592.928 109.261 593.727 108.462 594.745 108.462C595.763 108.534 596.562 109.334 596.562 110.279ZM567.557 168.726C567.557 169.744 566.757 170.543 565.74 170.543C564.722 170.543 563.922 169.744 563.922 168.726C563.922 167.708 564.722 166.909 565.74 166.909C566.757 166.981 567.557 167.781 567.557 168.726ZM586.894 220.049C586.894 221.067 586.094 221.866 585.076 221.866C584.059 221.866 583.259 221.067 583.259 220.049C583.259 219.031 584.059 218.232 585.076 218.232C586.094 218.232 586.894 219.104 586.894 220.049ZM371.352 337.161C371.352 338.179 370.552 338.979 369.535 338.979C368.517 338.979 367.717 338.179 367.717 337.161C367.717 336.143 368.517 335.344 369.535 335.344C370.552 335.344 371.352 336.143 371.352 337.161ZM428.854 329.237C428.854 330.255 428.054 331.055 427.037 331.055C426.019 331.055 425.219 330.255 425.219 329.237C425.219 328.22 426.019 327.42 427.037 327.42C428.054 327.493 428.854 328.292 428.854 329.237ZM335.077 265.484C335.077 266.501 334.277 267.301 333.26 267.301C332.242 267.301 331.442 266.501 331.442 265.484C331.442 264.466 332.242 263.666 333.26 263.666C334.277 263.666 335.077 264.466 335.077 265.484ZM293.35 235.17C293.35 236.187 292.55 236.987 291.533 236.987C290.515 236.987 289.715 236.187 289.715 235.17C289.715 234.152 290.515 233.352 291.533 233.352C292.55 233.352 293.35 234.152 293.35 235.17ZM239.919 192.934C239.919 193.951 239.119 194.751 238.101 194.751C237.084 194.751 236.284 193.951 236.284 192.934C236.284 191.916 237.084 191.116 238.101 191.116C239.119 191.189 239.919 191.989 239.919 192.934ZM227.27 136.522C227.27 137.54 226.47 138.339 225.452 138.339C224.435 138.339 223.635 137.54 223.635 136.522C223.635 135.504 224.435 134.705 225.452 134.705C226.397 134.705 227.27 135.504 227.27 136.522ZM273.868 331.927C273.868 332.945 273.068 333.745 272.05 333.745C271.032 333.745 270.233 332.945 270.233 331.927C270.233 330.909 271.032 330.11 272.05 330.11C273.068 330.11 273.868 330.909 273.868 331.927ZM248.933 261.631C248.933 262.648 248.133 263.448 247.116 263.448C246.098 263.448 245.298 262.648 245.298 261.631C245.298 260.613 246.098 259.813 247.116 259.813C248.133 259.813 248.933 260.613 248.933 261.631ZM332.969 294.562C335.586 301.468 335.368 308.955 332.315 315.643C329.261 322.331 323.809 327.493 316.903 330.11C309.997 332.727 302.509 332.509 295.822 329.456C289.134 326.402 283.972 320.95 281.355 314.117C278.738 307.211 278.956 299.723 282.009 293.035C285.063 286.347 290.515 281.186 297.421 278.569C304.327 275.952 311.815 276.17 318.502 279.223C325.263 282.203 330.352 287.656 332.969 294.562Z" fill="#5FA503"/>
<path d="M316.976 330.11C310.07 332.727 302.582 332.509 295.894 329.455C289.206 326.402 284.045 320.95 281.428 314.044C278.811 307.138 279.029 299.65 282.082 292.962C285.135 286.274 290.587 281.113 297.493 278.496C304.4 275.879 311.887 276.097 318.575 279.15C325.263 282.203 330.425 287.656 333.042 294.489C335.659 301.395 335.44 308.883 332.387 315.571C329.334 322.331 323.882 327.493 316.976 330.11ZM296.33 275.443C280.41 281.477 272.414 299.287 278.375 315.207C284.408 331.127 302.219 339.124 318.139 333.163C334.059 327.129 342.056 309.319 336.095 293.399C330.061 277.478 312.251 269.482 296.33 275.443Z" fill="#14281D"/>
<path d="M298.002 318.987C299.82 319.714 302.582 319.351 303.382 319.205C304.4 320.005 306.871 321.023 308.471 321.096C305.272 323.494 299.674 321.822 298.002 318.987Z" fill="white"/>
<path d="M303.673 318.26C313.559 324.439 320.102 315.207 321.338 310.191C323.373 306.12 325.917 305.393 327.371 301.177C328.316 298.56 328.753 295.579 326.862 294.925C325.045 294.344 320.174 294.634 317.485 295.943C313.559 292.962 308.18 291.218 302.8 291.945C301.492 289.982 300.547 289.182 299.238 288.237C297.93 287.292 296.112 285.838 295.022 285.766C293.931 285.693 291.605 287.656 291.314 292.454C291.024 296.452 292.259 299.141 291.751 301.904C288.915 312.736 292.914 319.569 303.673 318.26Z" fill="white"/>
<path d="M298.875 314.117H298.802C296.403 312.372 291.896 310.482 288.988 309.682H288.915C288.915 309.682 288.915 309.682 288.843 309.61V309.537V309.464C288.843 309.392 288.988 309.319 289.061 309.319C292.041 310.191 296.621 312.081 299.02 313.826C299.02 313.826 299.02 313.826 299.093 313.899V313.971V314.044V314.117C298.947 314.117 298.947 314.117 298.875 314.117ZM298.22 314.916H298.148C295.167 313.244 291.169 312.299 287.098 312.372C287.025 312.372 286.953 312.299 286.953 312.227C286.953 312.154 286.953 312.154 287.025 312.081C287.025 312.081 287.098 312.009 287.171 312.009C291.314 311.936 295.385 312.881 298.439 314.626C298.511 314.626 298.511 314.698 298.511 314.698C298.511 314.771 298.511 314.771 298.511 314.844C298.511 314.844 298.511 314.916 298.439 314.916C298.293 314.916 298.22 314.916 298.22 314.916ZM299.674 316.588C297.13 315.789 294.004 315.425 291.169 315.643C291.096 315.643 291.024 315.571 291.024 315.498C291.024 315.425 291.024 315.425 291.096 315.353C291.169 315.28 291.169 315.28 291.242 315.28C294.077 315.134 297.275 315.498 299.82 316.225C299.892 316.225 299.965 316.37 299.892 316.443C299.892 316.443 299.892 316.516 299.82 316.516C299.747 316.588 299.674 316.588 299.674 316.588ZM319.666 317.897C317.63 316.952 312.832 316.08 309.924 316.443C309.852 316.443 309.779 316.37 309.779 316.298V316.225V316.152C309.779 316.152 309.779 316.152 309.852 316.08H309.924C312.905 315.716 317.776 316.588 319.811 317.533C319.884 317.533 319.884 317.606 319.884 317.606C319.884 317.679 319.884 317.679 319.884 317.752C319.884 317.752 319.884 317.824 319.811 317.824C319.738 317.897 319.666 317.897 319.666 317.897ZM319.229 320.95H319.157C317.049 319.569 312.251 317.824 309.634 317.824C309.561 317.824 309.561 317.824 309.488 317.752C309.488 317.752 309.416 317.679 309.416 317.606C309.416 317.533 309.488 317.461 309.634 317.461C312.323 317.461 317.121 319.205 319.302 320.659C319.375 320.732 319.375 320.805 319.375 320.877C319.375 320.877 319.375 320.95 319.302 320.95H319.229ZM316.612 322.549H316.54C314.795 321.386 308.398 318.333 307.671 318.478C307.598 318.478 307.525 318.406 307.525 318.333C307.525 318.26 307.525 318.26 307.525 318.188L307.598 318.115C308.471 317.97 315.159 321.241 316.685 322.259L316.758 322.331C316.758 322.331 316.758 322.404 316.758 322.477C316.758 322.477 316.758 322.549 316.685 322.549C316.685 322.477 316.685 322.549 316.612 322.549ZM306.144 315.643C305.853 315.643 305.635 315.425 305.635 315.134C305.635 314.844 305.853 314.626 306.144 314.626C306.435 314.626 306.653 314.844 306.653 315.134C306.653 315.353 306.435 315.643 306.144 315.643ZM305.417 313.681C304.109 313.244 302.146 312.881 301.855 313.753C301.564 314.626 302.364 316.952 303.6 317.315C304.908 317.752 306.726 316.661 307.307 315.353C307.525 314.844 306.726 314.189 305.417 313.681ZM291.678 301.977C296.185 301.977 300.619 297.906 302.8 291.945C301.492 289.982 300.547 289.182 299.238 288.237C297.93 287.292 296.112 285.838 295.022 285.766C293.931 285.693 291.605 287.656 291.314 292.454C290.951 296.524 292.187 299.141 291.678 301.977ZM326.862 294.852C325.045 294.271 320.174 294.562 317.485 295.87C315.159 294.126 312.251 292.744 309.197 292.09C311.887 296.234 311.669 298.705 309.343 302.485C307.453 305.466 306.508 308.665 307.598 311.282C308.834 314.117 314.504 314.989 320.32 312.881C320.829 311.863 321.192 310.918 321.338 310.119C323.373 306.048 325.917 305.321 327.371 301.104C328.316 298.487 328.753 295.507 326.862 294.852ZM300.765 304.594C300.838 305.393 300.692 306.629 299.602 307.72C299.166 306.484 299.529 305.321 300.183 304.448C298.657 304.23 297.203 304.957 296.912 306.193C296.548 307.574 297.639 308.955 299.311 309.392C300.983 309.828 302.582 309.028 302.873 307.647C303.091 306.411 302.219 305.103 300.765 304.594Z" fill="#14281D"/>
<path d="M577.08 96.9756C579.697 103.882 579.479 111.369 576.426 118.057C573.373 124.745 567.92 129.907 561.087 132.524C554.181 135.141 546.693 134.923 540.005 131.869C533.317 128.816 528.156 123.364 525.539 116.531C522.922 109.625 523.14 102.137 526.193 95.449C529.246 88.7611 534.699 83.5997 541.605 80.9827C548.511 78.3656 555.998 78.5837 562.686 81.6369C569.374 84.6174 574.463 90.0696 577.08 96.9756Z" fill="#5FA503"/>
<path d="M561.087 132.451C554.181 135.068 546.693 134.85 540.005 131.797C533.317 128.744 528.156 123.291 525.539 116.385C522.922 109.479 523.14 101.992 526.193 95.3037C529.246 88.6157 534.699 83.4543 541.605 80.8373C548.511 78.2202 555.998 78.4383 562.686 81.4915C569.374 84.5447 574.536 89.9969 577.153 96.903C579.77 103.809 579.552 111.297 576.498 117.985C573.445 124.745 567.993 129.834 561.087 132.451ZM540.441 77.8568C524.521 83.8905 516.525 101.701 522.486 117.621C528.519 133.541 546.33 141.538 562.25 135.577C578.17 129.543 586.167 111.733 580.206 95.8125C574.172 79.8195 556.362 71.823 540.441 77.8568Z" fill="#14281D"/>
<path d="M560.287 123.219C560.433 123.437 560.36 123.655 560.142 123.8L559.633 124.091C559.415 124.236 559.197 124.164 559.052 123.946L558.615 123.291C558.615 123.219 558.688 123.146 558.688 123.001C558.833 122.492 559.124 122.128 559.488 121.837L560.287 123.219ZM561.959 122.274C562.105 122.492 562.032 122.71 561.814 122.855L561.305 123.146C561.087 123.291 560.869 123.219 560.724 123.001L559.924 121.619C560.36 121.401 560.796 121.401 561.305 121.474C561.378 121.474 561.523 121.547 561.596 121.547L561.959 122.274Z" fill="white"/>
<path d="M564.14 120.965C563.413 121.401 562.395 121.329 561.378 121.111C559.996 120.82 558.688 121.619 558.324 122.928C558.034 123.873 557.598 124.818 556.943 125.254C552.582 127.871 546.839 126.127 544.658 121.401C544.004 119.947 543.785 118.421 543.931 116.894C542.695 114.713 542.259 112.314 542.622 109.988C540.805 109.188 538.697 108.462 536.225 107.444C532.3 105.845 527.865 98.2842 528.592 97.2664C529.319 96.3214 535.571 97.9207 539.133 100.683C541.386 102.428 542.768 104.173 544.294 105.554C545.167 104.1 546.475 102.864 548.002 101.919C553.236 98.793 559.924 100.465 563.122 105.626C564.358 106.135 565.521 106.935 566.466 108.025C569.81 112.169 568.575 118.275 564.14 120.965Z" fill="white"/>
<path d="M543.422 106.935C543.204 107.444 542.986 107.953 542.84 108.462C541.968 108.098 541.023 107.735 540.005 107.371C538.988 106.935 537.897 106.571 536.661 106.063C534.335 105.118 531.791 101.628 530.555 99.3746C530.409 99.0838 530.7 98.6476 531.064 98.7203C533.026 99.1565 535.934 100.247 538.042 101.846C539.496 103.009 540.587 104.1 541.605 105.19C542.259 105.772 542.768 106.353 543.422 106.935ZM551.636 116.022C550.546 115.804 549.383 115.949 548.365 116.531L548.293 116.603C548.002 116.313 547.711 116.022 547.493 115.658C546.621 114.204 546.766 112.605 547.784 111.951C548.801 111.369 550.328 112.024 551.2 113.405C551.709 114.35 551.855 115.295 551.636 116.022Z" fill="#14281D"/>
<path d="M547.784 113.478C548.002 113.259 548.365 113.332 548.511 113.55C548.729 113.768 548.656 114.132 548.438 114.277C548.22 114.495 547.856 114.423 547.711 114.204C547.566 113.986 547.566 113.696 547.784 113.478Z" fill="white"/>
<path d="M558.833 116.095C558.688 116.313 558.47 116.531 558.325 116.749C557.961 117.403 557.816 118.13 557.743 118.566C557.307 118.421 556.653 118.203 555.853 118.203C555.562 118.203 555.271 118.203 555.053 118.275C554.981 118.203 554.908 118.13 554.908 118.057C554.254 117.04 555.053 116.313 556.071 115.731C557.089 115.077 558.034 114.786 558.688 115.804C558.761 115.949 558.833 116.022 558.833 116.095ZM549.601 120.165C549.892 120.238 550.037 120.529 549.965 120.82C549.892 121.111 549.601 121.256 549.31 121.183C549.02 121.111 548.874 120.82 548.947 120.529C549.02 120.238 549.31 120.093 549.601 120.165ZM550.401 122.637C550.546 122.855 550.473 123.219 550.183 123.364C549.965 123.509 549.601 123.437 549.456 123.146C549.31 122.928 549.383 122.564 549.674 122.419C549.892 122.274 550.255 122.346 550.401 122.637ZM552.8 121.765C552.945 121.983 552.872 122.346 552.582 122.492C552.364 122.637 552 122.564 551.855 122.274C551.709 122.056 551.782 121.692 552.073 121.547C552.291 121.474 552.654 121.547 552.8 121.765ZM561.814 113.623C561.959 113.841 562.323 113.986 562.541 113.841C562.759 113.696 562.904 113.332 562.759 113.114C562.614 112.896 562.25 112.751 562.032 112.896C561.741 113.041 561.669 113.332 561.814 113.623ZM563.486 115.44C563.631 115.658 563.995 115.804 564.213 115.658C564.431 115.513 564.576 115.149 564.431 114.931C564.286 114.713 563.922 114.568 563.704 114.713C563.486 114.859 563.341 115.149 563.486 115.44ZM561.523 116.603C561.669 116.821 562.032 116.967 562.25 116.821C562.468 116.676 562.614 116.313 562.468 116.095C562.323 115.876 561.959 115.731 561.741 115.876C561.45 116.022 561.378 116.385 561.523 116.603ZM557.598 101.119C557.816 99.0838 558.107 96.9029 558.47 94.1405C558.906 89.9242 554.399 82.3639 553.236 82.5819C552.073 82.7273 550.473 88.9791 551.2 93.4136C551.637 96.2487 552.509 98.2842 553.018 100.32C551.419 100.392 549.892 100.828 548.438 101.555C547.202 101.047 546.039 100.392 545.021 99.5927C545.312 100.465 545.748 101.41 546.257 102.21C546.33 102.282 546.403 102.428 546.475 102.5C545.676 102.282 544.949 101.992 544.222 101.701C544.367 101.992 544.512 102.355 544.731 102.646C544.949 103.082 545.239 103.446 545.53 103.809C547.42 105.408 549.601 106.281 550.328 106.571C551.419 107.08 552.291 108.898 552.582 109.697C553.527 112.169 555.926 113.332 558.325 112.46C560.724 111.515 561.378 108.607 561.378 108.607C561.45 107.444 562.25 106.135 562.614 105.917C562.759 105.844 562.977 105.699 563.122 105.626C561.669 103.446 559.778 101.919 557.598 101.119Z" fill="#14281D"/>
<path d="M279.102 120.165C275.321 126.49 269.288 130.924 262.091 132.669C254.967 134.414 247.552 133.323 241.227 129.543C234.903 125.763 230.468 119.729 228.724 112.532C226.979 105.408 228.069 97.9934 231.85 91.6689C235.63 85.3444 241.663 80.91 248.86 79.1653C255.984 77.4206 263.399 78.511 269.724 82.2912C276.048 86.0713 280.483 92.1051 282.228 99.3019C284.045 106.426 282.954 113.841 279.102 120.165Z" fill="#5FA503"/>
<path d="M279.102 120.165C275.321 126.49 269.288 130.924 262.091 132.669C254.967 134.414 247.552 133.323 241.227 129.543C234.903 125.763 230.468 119.729 228.724 112.532C226.979 105.408 228.069 97.9934 231.85 91.6689C235.63 85.3444 241.663 80.91 248.86 79.1653C255.984 77.4206 263.399 78.511 269.724 82.2912C276.048 86.0713 280.483 92.1051 282.228 99.3019C284.045 106.426 282.954 113.841 279.102 120.165Z" stroke="#5DBA33" stroke-width="1.78373"/>
<path d="M241.3 129.543C234.976 125.763 230.541 119.729 228.796 112.532C227.052 105.408 228.142 97.9934 231.922 91.6689C235.702 85.3444 241.736 80.91 248.933 79.1653C256.057 77.4206 263.472 78.511 269.797 82.2912C276.121 86.0713 280.556 92.1051 282.3 99.3019C284.045 106.426 282.954 113.841 279.174 120.165C275.394 126.49 269.36 130.924 262.164 132.669C254.967 134.414 247.552 133.323 241.3 129.543ZM271.469 79.5287C256.857 70.7326 237.956 75.3851 229.16 89.9969C220.364 104.609 225.016 123.509 239.628 132.306C254.24 141.102 273.141 136.449 281.937 121.837C290.733 107.226 286.008 88.3249 271.469 79.5287Z" fill="#14281D"/>
<path d="M259.256 121.401C258.311 125.254 256.203 125.4 248.933 122.782L248.788 122.71C241.591 119.729 240.21 118.275 242.1 114.713C243.045 112.896 242.754 109.407 242.681 106.862C242.681 106.281 242.681 105.699 242.681 105.19C242.681 104.972 242.681 104.754 242.754 104.536C242.899 103.009 243.335 101.774 243.917 100.61C247.77 98.1388 254.167 92.0324 253.949 89.7061C256.566 89.6334 263.109 90.7238 265.362 92.0324C264.635 91.9597 264.126 92.1051 263.836 92.6139C262.527 95.231 263.109 99.8835 263.036 102.719C262.963 106.353 259.837 104.754 258.529 108.243C257.22 111.733 260.492 113.623 264.126 115.004C262.309 117.04 259.765 119.366 259.256 121.401Z" fill="white"/>
<path d="M243.917 100.683C243.045 101.265 242.245 101.628 241.736 101.774C241.809 101.192 241.954 100.465 241.663 99.8834C241.009 100.465 240.428 101.047 239.773 101.628C239.192 98.1388 235.412 90.7965 240.137 88.1795C242.245 87.0164 244.862 86.9437 247.188 86.9437C250.314 86.9437 251.695 87.1618 253.731 89.2699C253.876 89.4153 253.949 89.5607 253.949 89.7788C254.094 92.105 247.77 98.2114 243.917 100.683ZM269.215 111.442C268.924 110.86 269.433 109.625 269.433 108.97C268.27 110.642 267.18 112.46 266.307 114.35C266.089 114.059 265.871 113.696 265.653 113.405C265.508 113.55 264.126 115.149 264.126 115.149C260.492 113.768 257.148 111.878 258.529 108.389C259.91 104.899 262.963 106.499 263.036 102.864C263.109 99.9561 262.527 95.3036 263.836 92.7593C264.054 92.2504 264.635 92.105 265.362 92.1777C267.543 92.3958 270.742 94.5767 272.632 96.0306C274.594 97.4845 278.52 100.828 278.229 104.172C278.011 106.281 269.724 112.532 269.215 111.442ZM248.933 105.408C248.715 105.263 248.57 104.972 248.715 104.754C248.86 104.536 249.151 104.391 249.442 104.536C249.66 104.681 249.805 104.972 249.66 105.263C249.515 105.481 249.224 105.554 248.933 105.408ZM245.444 104.318C245.298 106.862 248.57 108.098 250.387 106.208C250.532 103.082 246.97 102.21 245.444 104.318ZM253.077 118.712C252.931 118.93 252.568 119.002 252.35 118.857C252.132 118.712 252.059 118.348 252.204 118.13C252.35 117.912 252.713 117.839 252.931 117.985C253.222 118.13 253.222 118.421 253.077 118.712ZM247.552 117.185C246.679 121.474 251.405 123.146 253.513 119.584C255.185 116.821 248.206 114.059 247.552 117.185Z" fill="#14281D"/>
<path d="M253.149 125.472C253.004 125.836 250.678 126.781 247.77 125.69C244.862 124.6 243.772 122.274 243.917 121.91C243.99 121.692 244.208 121.619 244.426 121.692C244.717 121.837 245.952 123.219 248.351 124.164C250.75 125.109 252.64 124.891 252.931 124.963C253.149 125.109 253.222 125.327 253.149 125.472Z" fill="white"/>
<path d="M368.372 227.973C368.372 227.973 353.178 305.539 343.8 339.415C349.543 332.872 356.886 328.292 363.574 325.385C367.863 298.124 377.095 249.2 380.948 231.317L372.951 225.792L368.372 227.973Z" fill="#5FA503"/>
<path d="M350.634 266.211L390.18 251.235C387.709 257.705 385.818 264.902 385.237 271.663C374.26 271.59 359.43 272.535 346.49 280.023L350.634 266.211ZM400.43 286.056C398.467 286.056 397.232 284.675 397.232 282.712C397.232 276.751 409.372 271.808 414.46 266.138C412.425 276.606 405.882 286.056 400.43 286.056ZM428.636 247.673C428.636 238.586 423.765 234.225 416.205 234.225C409.808 234.225 402.248 237.278 397.668 241.639C397.668 241.639 395.051 252.907 393.67 257.851C398.613 252.835 407.772 248.691 413.37 248.691C415.551 248.691 416.569 249.781 416.569 251.308C416.569 258.796 384.146 265.774 384.146 288.819C384.146 297.179 388.435 301.977 394.396 301.977C401.157 301.977 406.464 296.815 410.026 289.691C409.517 292.308 408.936 294.852 408.354 296.961C408.354 296.961 418.895 293.18 423.329 291.581C420.276 277.914 428.636 263.012 428.636 247.673ZM435.179 228.264C437.723 231.826 438.305 236.987 437.069 243.384C434.234 258.796 431.398 274.207 428.563 289.618L441.939 284.821C445.865 261.631 450.59 236.26 455.969 236.26C456.842 236.26 457.351 237.205 457.351 239.749C457.351 247.819 453.643 259.886 449.863 281.913L462.294 277.406C466.147 256.469 469.345 234.879 474.143 234.879C475.379 234.879 476.106 236.623 476.106 239.022C476.106 246.365 472.617 259.741 470.145 274.57L484.684 269.336C483.594 252.98 489.555 240.694 489.555 228.99C489.555 222.593 487.083 216.341 480.977 216.341C474.943 216.341 469.2 222.302 466.656 229.645H471.017C471.817 224.193 469.273 217.359 462.948 217.359C456.042 217.359 448.845 226.373 447.173 235.17H449.427C451.462 229.717 450.59 222.739 447.173 220.049L435.179 228.264ZM501.404 203.692C498.932 223.32 494.353 247.819 490.282 267.374L505.039 262.067C507.074 239.677 510.927 220.703 516.525 198.24L501.404 203.692ZM523.576 195.696C521.613 211.398 515.798 243.675 511.8 259.595L540.95 249.127L545.239 229.427C545.239 229.427 536.661 237.35 528.738 240.476C531.137 224.992 535.207 207.473 539.351 190.098L523.576 195.696Z" fill="#5FA503"/>
<path d="M546.33 187.554C546.911 195.769 541.823 206.528 541.823 216.269C541.823 224.774 546.693 229.136 552.145 229.136C562.686 229.136 566.176 216.269 570.319 204.129L564.867 209.29C558.034 246.801 549.746 266.792 512.018 274.28C468.837 282.785 441.648 295.143 424.056 313.026C431.398 312.808 438.523 314.698 442.593 318.915C461.349 302.485 481.558 293.617 518.56 284.748C554.254 276.17 566.757 261.776 573.591 222.012C575.844 209.145 579.333 181.957 579.333 181.957L576.935 186.318C581.078 185.155 586.748 185.664 590.892 186.173L595.69 169.526L569.083 179.34C566.103 195.114 562.25 215.106 556.871 215.106C555.053 215.106 554.326 213.506 554.326 210.889C554.326 205.146 560.142 188.645 562.686 181.666L546.33 187.554Z" fill="#5FA503"/>
<path d="M511.145 176.286C510.273 180.503 508.237 183.847 506.711 183.847C505.112 183.847 504.53 180.43 505.402 176.214C506.275 171.997 508.31 168.653 509.837 168.653C511.436 168.726 512.018 172.143 511.145 176.286ZM511.145 163.274C504.675 163.274 498.642 172.433 498.642 181.884C498.642 186.827 501.041 190.898 504.966 190.898C511.363 190.898 517.47 182.611 517.47 172.288C517.47 167.417 515.071 163.274 511.145 163.274ZM476.542 175.705C477.851 181.884 475.452 186.318 475.452 191.698C475.452 196.132 477.923 198.531 480.831 198.531C483.739 198.531 486.938 195.696 487.955 191.334H486.211C485.338 199.185 482.358 203.402 475.452 201.075L472.762 208.345C483.448 211.18 489.773 203.692 491.663 193.442C493.335 184.21 497.188 168.29 497.188 168.29L489.918 170.907C489.119 179.848 486.647 192.061 483.376 192.061C482.358 192.061 481.704 191.043 481.704 188.79C481.704 185.082 483.448 176.65 484.83 172.724L476.542 175.705ZM522.922 159.057C523.358 164.8 520.668 170.616 520.668 176.65C520.668 181.157 523.285 183.192 526.411 183.192C530.555 183.192 534.262 177.958 536.08 171.488H534.48C533.245 174.105 532.518 177.886 533.463 180.648L539.569 178.467C538.988 170.907 540.514 160.003 542.986 151.861L535.644 154.55C534.771 165.6 531.355 175.923 528.447 175.923C527.72 175.923 527.138 175.269 527.138 174.105C527.138 170.689 529.61 162.692 530.773 156.295L522.922 159.057ZM547.856 150.043C547.057 156.949 544.876 169.453 543.059 177.159L550.837 174.396C550.764 164.219 554.036 152.442 557.234 152.442C558.688 152.442 558.761 156.222 557.016 160.729L563.341 158.04C566.539 150.698 565.013 145.391 560.869 145.391C555.998 145.391 551.128 151.715 549.892 158.985H551.128L553.599 148.008L547.856 150.043Z" fill="#14281D"/>
<path d="M247.188 219.976C247.188 181.375 271.687 136.813 291.751 136.813C301.564 136.813 307.089 145.536 307.089 162.692C307.089 179.194 301.783 196.423 294.658 208.563C291.242 205.001 285.571 202.747 280.047 202.311C286.226 190.535 292.114 172.652 292.114 160.584C292.114 156.513 291.096 153.387 288.625 153.387C278.883 153.387 261.364 189.59 261.364 220.049C261.364 238.077 269.433 249.636 285.862 249.636C322.065 249.636 405.81 182.683 463.602 190.389C458.223 194.387 453.934 200.712 451.898 207.255C392.216 204.347 323.01 264.175 284.554 264.175C261.8 264.248 247.188 250.436 247.188 219.976Z" fill="#5FA503"/>
<path d="M314.94 125.4C317.703 156.804 308.616 203.692 303.091 227.318L319.302 221.503C319.302 203.62 325.917 173.669 332.823 173.669C334.35 173.669 335.368 175.269 335.368 178.104C335.368 185.955 331.515 205.292 328.098 218.377L344.019 212.634C342.855 199.331 349.98 182.029 349.98 168.871C349.98 159.566 346.999 153.751 341.692 153.751C335.877 153.751 325.627 164.146 323.373 176.068H325.118C325.118 158.185 332.969 124.818 339.148 107.444C331.151 115.368 323.01 121.547 314.94 125.4ZM368.808 189.299C366.481 189.153 365.391 185.809 365.682 181.375C366.336 168.944 371.716 153.605 377.095 153.896C379.421 154.041 380.512 157.385 380.221 161.82C379.494 173.96 374.114 189.59 368.808 189.299ZM378.985 140.666C367.645 140.666 354.051 160.366 354.051 185.301C354.051 196.205 358.703 204.492 366.045 204.492C377.386 204.492 390.98 184.792 390.98 159.857C390.98 149.607 386.327 140.666 378.985 140.666ZM409.808 174.469C407.482 174.324 406.391 170.98 406.682 166.545C407.336 154.114 412.716 138.775 418.095 139.066C420.421 139.212 421.512 142.556 421.221 146.99C420.567 159.057 415.115 174.76 409.808 174.469ZM419.985 125.836C408.645 125.836 395.051 145.536 395.051 170.471C395.051 181.375 399.703 189.662 407.045 189.662C418.386 189.662 431.98 169.962 431.98 145.027C431.98 134.705 427.327 125.836 419.985 125.836ZM448.773 174.76C457.714 174.76 465.711 168.871 465.711 155.641C465.711 143.137 452.335 134.123 452.335 127.798C452.335 125.908 453.716 124.164 455.679 124.164C459.968 124.164 463.166 132.233 463.893 135.65C463.893 135.65 470.509 125.981 472.181 121.837C468.618 116.385 463.094 112.678 455.969 112.678C449.427 112.678 440.849 117.985 440.849 129.543C440.849 140.084 453.643 150.116 453.643 156.368C453.643 159.276 452.189 160.657 450.227 160.657C447.173 160.657 445.065 156.222 444.702 152.006C441.067 153.896 436.996 156.295 434.306 158.839C435.615 168.217 441.212 174.76 448.773 174.76ZM471.817 146.408C471.817 126.126 485.411 97.4845 499.95 97.4845C510.055 97.4845 515.289 110.206 507.147 128.962L480.25 136.958L481.34 124.454L498.86 119.22C499.877 114.859 499.078 111.297 496.243 111.297C491.154 111.297 483.666 129.47 483.666 140.956C483.666 144.591 484.539 146.99 486.938 146.99C491.881 146.99 501.477 138.994 505.839 134.923L503.003 150.625C497.479 156.15 489.991 162.256 482.649 162.256C476.033 162.256 471.817 157.313 471.817 146.408Z" fill="#5FA503"/>
<path d="M466.001 88.7611C464.766 88.7611 464.184 87.9614 464.184 86.871C464.184 83.2362 469.127 82.1458 471.672 80.4738C471.09 83.3816 468.909 88.7611 466.001 88.7611ZM478.142 73.3496C478.142 69.7149 476.179 66.9524 473.053 66.9524C469.636 66.9524 466.001 68.6244 463.094 70.151L460.985 78.2929C463.166 75.6759 467.891 72.9135 470.363 72.9135C471.526 72.9135 472.108 73.5677 472.108 74.2947C472.108 77.3479 458.15 78.8018 458.15 89.3426C458.15 92.832 460.04 95.3036 463.239 95.3036C466.292 95.3036 469.055 92.832 471.017 89.9242C471.09 90.8692 471.235 91.7416 471.526 92.4685L477.197 90.4331C475.161 85.0536 478.142 78.7291 478.142 73.3496ZM450.59 74.3674C444.847 74.7309 437.65 82.582 437.65 93.4136C437.65 99.3019 440.703 102.5 444.847 102.21C448.046 101.992 451.462 100.174 453.134 97.848L454.516 90.5784C451.899 93.2682 448.845 95.5944 446.374 95.7398C444.774 95.8125 443.757 94.6494 443.757 92.3958C443.757 87.3798 446.664 81.128 449.354 80.91C450.227 80.8373 450.663 81.4915 450.663 82.8727C450.663 84.7628 450.081 86.871 448.991 89.2699C448.991 89.2699 452.407 87.816 455.097 86.6529C457.423 80.91 456.842 73.9312 450.59 74.3674ZM480.104 89.4153C482.503 79.0926 485.484 67.8975 484.611 62.3726L490.936 60.1191C491.518 62.2272 491.518 65.862 490.645 68.8425H489.555C491.299 62.8088 495.807 57.0659 499.95 57.0659C502.349 57.0659 503.585 59.3194 503.585 63.0996C503.585 69.3514 499.732 76.7663 500.677 82.0004L492.753 84.8355C492.753 84.8355 496.097 72.0411 496.097 68.4064C496.097 66.589 495.734 65.862 494.861 65.862C492.099 65.862 488.755 76.9117 487.156 86.871L480.104 89.4153ZM510.418 43.3991L507.365 56.1935C507.365 56.1935 506.856 56.3389 506.129 56.6297C506.129 52.1226 503.512 46.8158 503.512 46.8158L510.418 43.3991ZM516.597 42.3814C517.034 51.1049 511.581 62.7361 511.581 69.4968C511.581 74.0039 513.98 76.0394 516.961 76.0394C519.796 76.0394 523.794 73.7131 525.612 70.9507L526.557 62.1546C524.739 65.4258 522.34 68.1883 520.087 68.1883C519.142 68.1883 518.415 67.534 518.415 65.9347C518.415 62.1546 522.268 48.6332 524.957 38.8193L516.597 42.3814Z" fill="#14281D"/>
<path d="M512.163 52.4861L528.301 46.6704L526.629 55.83C522.704 55.6847 516.089 56.9205 510.709 58.7379L512.163 52.4861ZM395.778 107.371C394.905 111.587 392.87 114.931 391.343 114.931C389.744 114.931 389.162 111.515 390.035 107.298C390.907 103.082 392.943 99.7381 394.469 99.7381C396.068 99.8108 396.65 103.227 395.778 107.371ZM395.778 94.3586C389.308 94.3586 383.274 103.518 383.274 112.969C383.274 117.912 385.673 121.983 389.599 121.983C395.996 121.983 402.102 113.696 402.102 103.373C402.102 98.5022 399.703 94.3586 395.778 94.3586ZM361.175 106.79C362.483 112.969 360.084 117.403 360.084 122.782C360.084 127.217 362.556 129.616 365.464 129.616C368.444 129.616 371.57 126.781 372.588 122.419H370.916C370.044 130.27 367.063 134.486 360.157 132.16L357.467 139.43C368.153 142.265 374.478 134.777 376.368 124.527C378.04 115.295 381.893 99.3746 381.893 99.3746L374.623 101.992C373.824 110.933 371.352 123.146 368.081 123.146C367.063 123.146 366.409 122.128 366.409 119.875C366.409 116.167 368.153 107.735 369.535 103.809L361.175 106.79ZM407.627 90.1423C408.063 95.8852 405.373 101.701 405.373 107.735C405.373 112.242 407.99 114.277 411.116 114.277C415.26 114.277 418.968 109.043 420.785 102.573H419.186C417.95 105.19 417.223 108.97 418.168 111.733L424.274 109.552C423.693 101.992 425.219 91.0873 427.691 82.9454L420.349 85.6352C419.476 96.6849 416.06 107.008 413.152 107.008C412.425 107.008 411.843 106.353 411.843 105.19C411.843 101.774 414.315 93.777 415.478 87.3798L407.627 90.1423ZM433.434 60.846C432.198 60.846 431.617 60.0464 431.617 58.9559C431.617 55.3212 436.56 54.2308 439.104 52.5588C438.523 55.4666 436.342 60.846 433.434 60.846ZM445.574 45.4346C445.574 41.7998 443.611 39.0374 440.485 39.0374C437.069 39.0374 433.434 40.7094 430.526 42.236L428.418 50.3779C430.599 47.7609 435.324 44.9984 437.796 44.9984C438.959 44.9984 439.54 45.6527 439.54 46.3796C439.54 49.4329 425.583 50.8868 425.583 61.4276C425.583 64.917 427.473 67.3886 430.671 67.3886C433.725 67.3886 436.487 64.917 438.45 62.0092C438.523 62.9542 438.668 63.8265 438.959 64.5535L444.629 62.518C442.594 57.0659 445.574 50.8141 445.574 45.4346ZM407.118 66.7344L405.155 74.5128C405.155 74.5128 408.354 75.2397 412.352 74.2947C417.005 73.2042 422.021 70.4418 422.312 64.5535C422.602 59.1013 414.315 57.502 414.46 54.8123C414.533 53.3584 416.132 52.6315 417.804 52.6315C419.404 52.6315 421.221 53.5038 422.093 54.3761L424.42 48.1243C421.875 47.1793 419.186 46.8158 416.06 47.5428C411.771 48.4878 408.499 51.3956 408.281 55.9027C407.99 61.2095 415.696 62.518 415.551 65.4258C415.478 66.6617 414.46 67.534 413.079 67.8248C411.262 68.1156 408.863 67.534 407.118 66.7344ZM472.471 43.181L470.436 50.8868C470.436 50.8868 473.634 51.6137 477.633 50.6687C482.285 49.5782 487.301 46.8158 487.592 40.9275C487.883 35.4753 479.595 33.876 479.741 31.1863C479.814 29.7324 481.413 29.0054 483.085 29.0054C484.684 29.0054 486.502 29.8778 487.374 30.7501L489.7 24.4983C487.156 23.5533 484.466 23.1898 481.34 23.9168C477.051 24.8618 473.78 27.7696 473.562 32.2767C473.271 37.5835 480.977 38.892 480.831 41.7998C480.759 43.0357 479.741 43.908 478.36 44.1988C476.542 44.5623 474.143 43.9807 472.471 43.181ZM450.081 35.1846C451.39 41.3637 448.991 45.7981 448.991 51.1775C448.991 55.612 451.462 58.0109 454.37 58.0109C457.351 58.0109 460.477 55.1758 461.494 50.8141H459.75C458.877 58.6652 455.897 62.8815 448.991 60.5552L446.301 67.8248C456.987 70.6599 463.312 63.1723 465.202 52.9222C466.874 43.6899 470.727 27.7696 470.727 27.7696L463.457 30.3867C462.657 39.3282 460.186 51.541 456.914 51.541C455.897 51.541 455.243 50.5233 455.243 48.2697C455.243 44.5623 456.987 36.1296 458.368 32.204L450.081 35.1846ZM293.059 72.0411L287.462 87.6706L303.818 78.0021C301.419 85.3444 297.13 96.9029 297.13 105.045C297.13 110.497 299.892 114.568 305.054 114.568C315.158 114.568 322.719 94.4313 325.045 85.1263L322.283 86.5075C319.448 95.7398 321.265 104.681 327.662 104.681C339.439 104.681 345.618 78.3656 349.616 51.7591L339.875 55.2485C337.839 69.933 335.222 91.0146 330.206 91.0146C328.825 91.0146 327.953 89.7061 327.953 86.5802C327.953 79.238 333.987 57.3567 333.987 57.3567L323.664 61.0641C320.465 79.9649 314.722 100.029 310.288 100.029C308.979 100.029 308.18 98.6476 308.18 95.7398C308.18 87.3071 316.031 63.8265 316.031 63.8265L293.059 72.0411Z" fill="#14281D"/>
<path d="M356.74 47.9063C356.74 47.9063 350.27 82.5819 345.691 98.0661C349.689 96.6122 353.76 95.2309 353.76 95.2309C356.159 82.1458 359.721 72.7681 362.483 72.7681C363.137 72.7681 363.719 73.4223 363.719 75.167C363.719 79.7468 360.811 85.5625 360.811 92.6866L368.226 89.9969C367.208 83.1635 370.189 77.2025 370.189 72.1138C370.189 68.1883 368.372 65.4985 365.682 65.4985C361.829 65.4985 357.685 68.0429 354.777 78.3656H356.449C358.121 69.4968 361.684 53.4311 361.684 53.4311C387.345 47.3974 416.423 26.8973 448.991 25.0799C449.863 19.6277 452.698 13.5213 456.406 9.88657C424.71 10.3227 386.545 40.7094 356.74 47.9063Z" fill="#14281D"/>
<path d="M386.037 71.4596C385.164 75.6759 383.129 79.0199 381.602 79.0199C380.003 79.0199 379.421 75.6032 380.294 71.3869C381.166 67.1705 383.201 63.8265 384.728 63.8265C386.327 63.8265 386.909 67.2432 386.037 71.4596ZM386.037 58.4471C379.567 58.4471 373.533 67.6067 373.533 77.0571C373.533 82.0004 375.932 86.0713 379.857 86.0713C386.255 86.0713 392.361 77.7841 392.361 67.4613C392.361 62.518 389.962 58.4471 386.037 58.4471Z" fill="#14281D"/>
</g>
</g>
<defs>
<clipPath id="clip0_89_355">
<rect width="609" height="508.16" fill="white"/>
</clipPath>
<clipPath id="clip1_89_355">
<rect width="395.84" height="354.39" fill="white" transform="translate(213.16)"/>
</clipPath>
<clipPath id="clip2_89_355">
<rect width="395.84" height="354.39" fill="white" transform="translate(213.16)"/>
</clipPath>
</defs>
</svg>
