<svg width="1920" height="1080" viewBox="0 0 1920 1080" fill="none" xmlns="http://www.w3.org/2000/svg">
<rect width="1920" height="1080" fill="#F6D86D"/>
<path d="M103.89 502.316C107.941 505.503 111.45 509.933 112.586 515.065C113.723 520.197 112.438 526.085 109.72 530.785C106.953 535.485 102.753 538.997 98.3554 539.807C93.9577 540.617 89.3623 538.726 84.6187 536.944C79.8752 535.215 75.0328 533.594 72.4633 529.921C69.8445 526.247 69.548 520.575 70.4868 515.173C71.4751 509.825 73.6492 504.747 77.2563 501.505C80.814 498.21 85.7552 496.805 90.4988 497.022C95.2918 497.238 99.8872 499.182 103.89 502.316Z" fill="url(#paint0_linear_260_13)"/>
<path d="M392.123 758.967C449.885 794.324 499.898 843.463 516.1 900.394C532.301 957.324 513.987 1022.64 475.244 1074.78C435.797 1126.92 375.922 1165.87 313.229 1174.86C250.536 1183.85 185.026 1162.87 117.402 1143.1C49.7784 1123.92 -19.254 1105.94 -55.8835 1065.19C-93.2174 1024.44 -97.4439 961.519 -84.06 901.592C-69.9718 842.265 -38.9776 785.934 12.4446 749.978C63.1623 713.423 133.604 697.842 201.227 700.239C269.555 702.636 335.066 724.209 392.123 758.967Z" fill="#FA912B"/>
<path d="M1589.91 811.927C1614.41 829.272 1635.63 853.378 1642.5 881.306C1649.37 909.234 1641.6 941.278 1625.17 966.854C1608.44 992.431 1583.04 1011.54 1556.45 1015.95C1529.86 1020.36 1502.07 1010.07 1473.39 1000.37C1444.71 990.961 1415.43 982.141 1399.89 962.151C1384.06 942.16 1382.27 911.292 1387.94 881.894C1393.92 852.79 1407.06 825.156 1428.88 807.517C1450.39 789.585 1480.26 781.941 1508.95 783.117C1537.93 784.293 1565.71 794.876 1589.91 811.927Z" fill="url(#paint1_linear_260_13)"/>
<path d="M1314.58 -127.033C1362.36 -91.6764 1403.72 -42.5365 1417.12 14.3937C1430.52 71.324 1415.37 136.644 1383.33 188.78C1350.7 240.916 1301.18 279.869 1249.33 288.858C1197.48 297.847 1143.3 276.872 1087.37 257.097C1031.44 237.92 974.34 219.942 944.044 179.192C913.166 138.442 909.67 75.5189 920.74 15.5923C932.392 -43.7351 958.027 -100.066 1000.56 -136.022C1042.5 -172.577 1100.77 -188.158 1156.7 -185.761C1213.21 -183.364 1267.39 -161.791 1314.58 -127.033Z" fill="url(#paint2_linear_260_13)"/>
<path d="M241.143 56.3731C249.53 63.1924 256.791 72.6701 259.143 83.6504C261.496 94.6306 258.837 107.229 253.212 117.285C247.484 127.34 238.791 134.853 229.689 136.587C220.587 138.321 211.076 134.275 201.257 130.461C191.439 126.762 181.417 123.295 176.098 115.435C170.678 107.576 170.064 95.4397 172.008 83.8815C174.053 72.4389 178.553 61.5743 186.019 54.6393C193.382 47.5889 203.61 44.5837 213.428 45.0461C223.348 45.5084 232.859 49.6693 241.143 56.3731Z" fill="url(#paint3_linear_260_13)"/>
<path d="M1742.21 562.247C1750.6 569.067 1757.86 578.544 1760.21 589.525C1762.56 600.505 1759.9 613.103 1754.28 623.159C1748.55 633.214 1739.86 640.727 1730.76 642.461C1721.66 644.195 1712.14 640.149 1702.33 636.335C1692.51 632.637 1682.48 629.169 1677.17 621.31C1671.75 613.45 1671.13 601.314 1673.08 589.756C1675.12 578.313 1679.62 567.448 1687.09 560.514C1694.45 553.463 1704.68 550.458 1714.5 550.92C1724.42 551.383 1733.93 555.544 1742.21 562.247Z" fill="url(#paint4_linear_260_13)"/>
<defs>
<linearGradient id="paint0_linear_260_13" x1="70" y1="540" x2="113" y2="497" gradientUnits="userSpaceOnUse">
<stop stop-color="#F87537"/>
<stop offset="1" stop-color="#FBA81F"/>
</linearGradient>
<linearGradient id="paint1_linear_260_13" x1="1385" y1="1017" x2="1617.71" y2="758.436" gradientUnits="userSpaceOnUse">
<stop stop-color="#F87537"/>
<stop offset="1" stop-color="#FBA81F"/>
</linearGradient>
<linearGradient id="paint2_linear_260_13" x1="915" y1="291" x2="1391.11" y2="-215.058" gradientUnits="userSpaceOnUse">
<stop stop-color="#F87537"/>
<stop offset="1" stop-color="#FBA81F"/>
</linearGradient>
<linearGradient id="paint3_linear_260_13" x1="171" y1="137" x2="262.949" y2="48.0489" gradientUnits="userSpaceOnUse">
<stop stop-color="#F87537"/>
<stop offset="1" stop-color="#FBA81F"/>
</linearGradient>
<linearGradient id="paint4_linear_260_13" x1="1678" y1="649" x2="1769.95" y2="560.049" gradientUnits="userSpaceOnUse">
<stop stop-color="#F87537"/>
<stop offset="1" stop-color="#FBA81F"/>
</linearGradient>
</defs>
</svg>
